<svg id="Ebene_1" data-name="Ebene 1" xmlns="http://www.w3.org/2000/svg" xmlns:xlink="http://www.w3.org/1999/xlink" viewBox="0 0 683.08 333.66"><defs><linearGradient id="linear-gradient" x1="164.44" y1="302.24" x2="681.83" y2="302.24" gradientUnits="userSpaceOnUse"><stop offset="0" stop-color="#ff9700"/><stop offset="0.3" stop-color="#feef30"/><stop offset="0.7" stop-color="#fee52b"/><stop offset="1" stop-color="#ff9700"/></linearGradient><linearGradient id="Silber" x1="156.26" y1="453.69" x2="224.47" y2="435.41" gradientUnits="userSpaceOnUse"><stop offset="0" stop-color="#eeebe9"/><stop offset="0" stop-color="#e7e3e0"/><stop offset="0.06" stop-color="#d8d4d3"/><stop offset="0.19" stop-color="#b2adb0"/><stop offset="0.26" stop-color="#989398"/><stop offset="0.52" stop-color="#f8f8f8"/><stop offset="0.59" stop-color="#eae9ea"/><stop offset="0.71" stop-color="#c5c2c4"/><stop offset="0.88" stop-color="#8c878a"/><stop offset="1" stop-color="#dadada"/><stop offset="1" stop-color="#b2b2b2"/></linearGradient><linearGradient id="Stahl" x1="152.31" y1="438.81" x2="231.23" y2="438.81" gradientUnits="userSpaceOnUse"><stop offset="0" stop-color="#eeebe9"/><stop offset="0" stop-color="#e7e3e0"/><stop offset="0.04" stop-color="#d8d5d3"/><stop offset="0.11" stop-color="#b1b1af"/><stop offset="0.21" stop-color="#737777"/><stop offset="0.26" stop-color="#4c5354"/><stop offset="0.27" stop-color="#4e5556"/><stop offset="0.38" stop-color="#909495"/><stop offset="0.47" stop-color="#c0c2c3"/><stop offset="0.53" stop-color="#dededf"/><stop offset="0.57" stop-color="#e9e9ea"/><stop offset="0.63" stop-color="#dfe0e1"/><stop offset="0.74" stop-color="#c5c7ca"/><stop offset="0.87" stop-color="#9ba0a5"/><stop offset="0.88" stop-color="#999ea3"/><stop offset="1" stop-color="#dadada"/><stop offset="1" stop-color="#b2b2b2"/></linearGradient><linearGradient id="Silber-2" x1="127.06" y1="430.97" x2="190.92" y2="413.85" xlink:href="#Silber"/><linearGradient id="Stahl-2" x1="120.58" y1="415.23" x2="198.37" y2="415.23" xlink:href="#Stahl"/><linearGradient id="Silber-3" x1="95.45" y1="390.25" x2="167.48" y2="370.95" xlink:href="#Silber"/><linearGradient id="Stahl-3" x1="84.25" y1="377.79" x2="173.4" y2="377.79" xlink:href="#Stahl"/><linearGradient id="Silber-4" x1="90.53" y1="335.16" x2="153.48" y2="318.29" xlink:href="#Silber"/><linearGradient id="Stahl-4" x1="80.53" y1="326.67" x2="156.23" y2="326.67" xlink:href="#Stahl"/><linearGradient id="Silber-5" x1="95.95" y1="290.58" x2="151.06" y2="275.82" xlink:href="#Silber"/><linearGradient id="Stahl-5" x1="89.92" y1="283.94" x2="155.14" y2="283.94" xlink:href="#Stahl"/><linearGradient id="Silber-6" x1="109.01" y1="251.82" x2="156.78" y2="239.02" xlink:href="#Silber"/><linearGradient id="Stahl-6" x1="108.53" y1="246.28" x2="162.14" y2="246.28" xlink:href="#Stahl"/><linearGradient id="Silber-7" x1="123.2" y1="214.62" x2="168.76" y2="202.42" xlink:href="#Silber"/><linearGradient id="Stahl-7" x1="127.45" y1="208.54" x2="176.02" y2="208.54" xlink:href="#Stahl"/><linearGradient id="Silber-8" x1="144" y1="190.77" x2="199.06" y2="176.01" xlink:href="#Silber"/><linearGradient id="Stahl-8" x1="148.57" y1="182.75" x2="207.74" y2="182.75" xlink:href="#Stahl"/><linearGradient id="Silber-9" x1="181.59" y1="166.22" x2="251.94" y2="147.37" xlink:href="#Silber"/><linearGradient id="Stahl-9" x1="182.08" y1="157.07" x2="251.85" y2="157.07" xlink:href="#Stahl"/><linearGradient id="Silber-10" x1="612.96" y1="460.46" x2="676.34" y2="430.9" xlink:href="#Silber"/><linearGradient id="Stahl-10" x1="612.9" y1="439.93" x2="691.82" y2="439.93" xlink:href="#Stahl"/><linearGradient id="Silber-11" x1="645.04" y1="433.18" x2="712.85" y2="401.56" xlink:href="#Silber"/><linearGradient id="Stahl-11" x1="645.76" y1="416.34" x2="723.55" y2="416.34" xlink:href="#Stahl"/><linearGradient id="Silber-12" x1="665.88" y1="393.24" x2="754.8" y2="351.78" xlink:href="#Silber"/><linearGradient id="Stahl-12" x1="670.74" y1="378.9" x2="759.89" y2="378.9" xlink:href="#Stahl"/><linearGradient id="Silber-13" x1="690.02" y1="350.16" x2="771.27" y2="312.28" xlink:href="#Silber"/><linearGradient id="Stahl-13" x1="687.91" y1="327.78" x2="763.6" y2="327.78" xlink:href="#Stahl"/><linearGradient id="Silber-14" x1="694.43" y1="304.5" x2="764.25" y2="271.94" xlink:href="#Silber"/><linearGradient id="Stahl-14" x1="688.99" y1="285.05" x2="754.21" y2="285.05" xlink:href="#Stahl"/><linearGradient id="Silber-15" x1="690.98" y1="263.66" x2="743.57" y2="239.14" xlink:href="#Silber"/><linearGradient id="Stahl-15" x1="682" y1="247.4" x2="735.61" y2="247.4" xlink:href="#Stahl"/><linearGradient id="Silber-16" x1="673.79" y1="224.5" x2="714.97" y2="205.29" xlink:href="#Silber"/><linearGradient id="Stahl-16" x1="668.11" y1="209.66" x2="716.68" y2="209.66" xlink:href="#Stahl"/><linearGradient id="Silber-17" x1="649.46" y1="198.23" x2="686.48" y2="180.96" xlink:href="#Silber"/><linearGradient id="Stahl-17" x1="636.4" y1="183.87" x2="695.56" y2="183.87" xlink:href="#Stahl"/><linearGradient id="Silber-18" x1="607.52" y1="167.18" x2="647.32" y2="148.62" xlink:href="#Silber"/><linearGradient id="Stahl-18" x1="592.29" y1="158.19" x2="662.05" y2="158.19" xlink:href="#Stahl"/><linearGradient id="Silber-19" x1="250.47" y1="220.63" x2="304.81" y2="220.63" xlink:href="#Silber"/><linearGradient id="Silber-20" x1="306.18" y1="220.64" x2="359.04" y2="220.64" xlink:href="#Silber"/><linearGradient id="Silber-21" x1="364.31" y1="221.01" x2="419.74" y2="221.01" xlink:href="#Silber"/><linearGradient id="Silber-22" x1="426.15" y1="220.77" x2="473.48" y2="220.77" xlink:href="#Silber"/><linearGradient id="Silber-23" x1="474.44" y1="221.15" x2="539.04" y2="221.15" xlink:href="#Silber"/><linearGradient id="Silber-24" x1="537.85" y1="220.74" x2="595.73" y2="220.74" xlink:href="#Silber"/><linearGradient id="linear-gradient-2" x1="243.25" y1="352.93" x2="326.31" y2="352.93" gradientUnits="userSpaceOnUse"><stop offset="0" stop-color="#eeebe9"/><stop offset="0" stop-color="#e7e3e0"/><stop offset="0.06" stop-color="#cac8c6"/><stop offset="0.18" stop-color="#828585"/><stop offset="0.26" stop-color="#4c5354"/><stop offset="0.27" stop-color="#4e5556"/><stop offset="0.38" stop-color="#909495"/><stop offset="0.47" stop-color="#c0c2c3"/><stop offset="0.53" stop-color="#dededf"/><stop offset="0.57" stop-color="#e9e9ea"/><stop offset="0.6" stop-color="#ccced1"/><stop offset="0.64" stop-color="#b6b9bd"/><stop offset="0.67" stop-color="#a6aaae"/><stop offset="0.71" stop-color="#9ca1a6"/><stop offset="0.76" stop-color="#999ea3"/><stop offset="0.77" stop-color="#9fa3a8"/><stop offset="0.82" stop-color="#b9bbbe"/><stop offset="0.88" stop-color="#cbccce"/><stop offset="0.94" stop-color="#d6d7d7"/><stop offset="1" stop-color="#dadada"/><stop offset="1" stop-color="#b2b2b2"/></linearGradient><linearGradient id="linear-gradient-3" x1="331.64" y1="352.93" x2="400.45" y2="352.93" xlink:href="#linear-gradient-2"/><linearGradient id="linear-gradient-4" x1="405.64" y1="352.93" x2="466.43" y2="352.93" xlink:href="#linear-gradient-2"/><linearGradient id="linear-gradient-5" x1="476.72" y1="352.93" x2="540.92" y2="352.93" xlink:href="#linear-gradient-2"/><linearGradient id="linear-gradient-6" x1="550.47" y1="352.93" x2="613.37" y2="352.93" xlink:href="#linear-gradient-2"/><linearGradient id="Silber-25" x1="386.78" y1="273.01" x2="414.2" y2="273.01" xlink:href="#Silber"/><linearGradient id="Silber-26" x1="415.63" y1="273.01" x2="440.99" y2="273.01" xlink:href="#Silber"/><linearGradient id="Silber-27" x1="442.61" y1="273.01" x2="470.99" y2="273.01" xlink:href="#Silber"/></defs><title>schlag-den-marco</title><path d="M681.83,302.24c0,77.26-55,139.88-122.89,139.88H287.33c-67.87,0-122.89-62.62-122.89-139.88h0c0-77.25,55-139.87,122.89-139.87H558.94c67.87,0,122.89,62.62,122.89,139.87Z" transform="translate(-80.53 -136.93)" style="fill:url(#linear-gradient)"/><path d="M156.4,454.22s18-1.29,31.37-3.82a56.43,56.43,0,0,0,14.73-4.91l-2.42-32a184.61,184.61,0,0,0,12.29,15.87c4.29,4.95,10.22,9.17,13.52,14.64,4.49,7.44,4,19.16,3.79,18.5-.12-.49-7.48.63-14.6,2.24-7.37,1.68-14.66,3.84-23.81,3.21-16.77-1.15-31.47-11.27-31.47-11.27Z" transform="translate(-80.53 -136.93)" style="fill-rule:evenodd;fill:url(#Silber)"/><path d="M200.08,413.46a184.61,184.61,0,0,0,12.29,15.87c4.29,4.95,10.22,9.17,13.52,14.64,4.37,7.24,4,18.53,3.8,18.53a0,0,0,0,1,0,0c0-.08-.23-.12-.6-.12a97.4,97.4,0,0,0-14,2.36c-6.48,1.47-12.9,3.33-20.57,3.33-1.06,0-2.13,0-3.24-.12-16.77-1.15-31.47-11.27-31.47-11.27l-3.4-2.43s18-1.29,31.37-3.82a56.43,56.43,0,0,0,14.73-4.91l-2.42-32m-1.85-5.31.41,5.42L201,444.63A57.72,57.72,0,0,1,187.51,449c-13.13,2.48-31,3.78-31.21,3.79l-4,.29,3.26,2.32,3.39,2.43c.64.43,15.24,10.37,32.21,11.54,1.11.08,2.23.12,3.34.12,6.64,0,12.35-1.35,17.86-2.66l3-.7a111.15,111.15,0,0,1,13.13-2.31l0,.1,1.13,0h.84l.42-.74c.62-1.1.55-12.72-3.82-20-2.15-3.56-5.34-6.59-8.42-9.52-1.8-1.72-3.67-3.5-5.25-5.32a185.93,185.93,0,0,1-12.19-15.74l-3-4.5Z" transform="translate(-80.53 -136.93)" style="fill:url(#Stahl)"/><path d="M123.4,417.34s14.78,1.07,25.24,1.17c13,.13,26.69-.2,26.69-.2a59.9,59.9,0,0,0,1.74-10.24c.54-7.17.2-15.48.2-15.48A31.18,31.18,0,0,1,187.5,405.4c5.59,12.86,9.18,31.83,9.18,31.83s-27.63,4.36-47.65-.06c-14.1-3.11-22.71-15.46-22.71-15.46Z" transform="translate(-80.53 -136.93)" style="fill-rule:evenodd;fill:url(#Silber-2)"/><path d="M177.27,392.59A31.18,31.18,0,0,1,187.5,405.4c5.59,12.86,9.18,31.83,9.18,31.83a188.81,188.81,0,0,1-26.2,1.92,102.13,102.13,0,0,1-21.45-2c-14.1-3.11-22.71-15.46-22.71-15.46l-2.92-4.37s14.78,1.07,25.24,1.17l6.41,0c10.74,0,20.28-.23,20.28-.23a59.9,59.9,0,0,0,1.74-10.24c.54-7.17.2-15.48.2-15.48m-1.55-2.73.11,2.79c0,.08.33,8.31-.19,15.31a59.41,59.41,0,0,1-1.44,8.93c-2.8.07-10.64.21-19.15.21l-6.39,0c-10.31-.1-25-1.15-25.15-1.16l-2.93-.22,1.63,2.45,2.91,4.37c.38.54,9.12,12.87,23.6,16.07a102.43,102.43,0,0,0,21.76,2,194.51,194.51,0,0,0,26.42-1.93l1.47-.24-.28-1.45c-.14-.78-3.68-19.29-9.27-32.14a32.41,32.41,0,0,0-10.77-13.45l-2.33-1.52Z" transform="translate(-80.53 -136.93)" style="fill:url(#Stahl-2)"/><path d="M86.52,356.68s24.66,15.83,44.32,22.76a40.77,40.77,0,0,0,23.14,1,38.31,38.31,0,0,1,.12-8.78c1.15-9.19,3.76-22.28,3.76-22.28a75.26,75.26,0,0,1,9.93,22.75c3.68,14.71,4.14,33.54,4.14,33.54a64.59,64.59,0,0,1-22.22,2.49c-8.61-.6-18.24-4.27-26-8.41-23.07-12.33-36.23-39.21-36.23-39.21Z" transform="translate(-80.53 -136.93)" style="fill-rule:evenodd;fill:url(#Silber-3)"/><path d="M157.86,349.4a75.26,75.26,0,0,1,9.93,22.75c3.68,14.71,4.14,33.54,4.14,33.54a64.17,64.17,0,0,1-18.22,2.63c-1.3,0-2.64,0-4-.14-8.61-.6-18.24-4.27-26-8.41-23.07-12.33-36.23-39.21-36.23-39.21l-1-3.88s24.66,15.83,44.32,22.76a40,40,0,0,0,13.31,2.22,37.39,37.39,0,0,0,9.83-1.2,38.31,38.31,0,0,1,.12-8.78c1.15-9.19,3.76-22.28,3.76-22.28m-.76-3.58-.65,3.3c0,.13-2.63,13.25-3.77,22.38a42.47,42.47,0,0,0-.25,7.86,39.09,39.09,0,0,1-8.28.86,38.51,38.51,0,0,1-12.83-2.14c-19.27-6.79-43.77-22.45-44-22.61l-3-2,.88,3.52,1,3.88,0,.15.07.13c.55,1.12,13.63,27.44,36.84,39.85,5.4,2.88,16,7.84,26.57,8.58,1.34.09,2.72.14,4.1.14a65.11,65.11,0,0,0,18.67-2.7l1-.34,0-1.06c0-.19-.51-19.17-4.18-33.86A76.32,76.32,0,0,0,159,348.57l-1.94-2.75Z" transform="translate(-80.53 -136.93)" style="fill:url(#Stahl-3)"/><path d="M82.64,290.2s.67,1.1,1.89,3c4.2,6.45,14.9,22,26.74,33a86.8,86.8,0,0,0,29.12,17.43l13.1-25.24a84.18,84.18,0,0,1,.34,27.57c-1.68,11.09-9.56,21.93-9.56,21.93s-24.63,2.05-42.15-16.6c-5-5.3-10.6-14.55-13.67-24.16a105.86,105.86,0,0,1-4.35-23.29Z" transform="translate(-80.53 -136.93)" style="fill-rule:evenodd;fill:url(#Silber-4)"/><path d="M82.64,290.2s.67,1.1,1.89,3c4.2,6.45,14.9,22,26.74,33a86.8,86.8,0,0,0,29.12,17.43l13.1-25.24a84.18,84.18,0,0,1,.34,27.57c-1.68,11.09-9.56,21.93-9.56,21.93s-.8.07-2.22.07c-6.43,0-25.57-1.38-39.93-16.67-5-5.3-10.6-14.55-13.67-24.16a105.86,105.86,0,0,1-4.35-23.29L82.64,290.2M80.53,284l.68,6.36,1.45,13.55a106.74,106.74,0,0,0,4.42,23.62c2.89,9,8.38,18.73,14,24.71,14.51,15.45,33.5,17.12,41,17.12,1.46,0,2.3-.07,2.34-.08l.66,0,.39-.53c.33-.46,8.1-11.26,9.81-22.57A84.69,84.69,0,0,0,154.9,318l-.85-3.9-1.84,3.54-12.52,24.13a86.82,86.82,0,0,1-27.44-16.72c-11.78-10.88-22.46-26.5-26.51-32.71-1.19-1.83-1.86-2.92-1.87-2.93L80.53,284Z" transform="translate(-80.53 -136.93)" style="fill:url(#Stahl-4)"/><path d="M92.35,244.1s10.27,23.4,22.7,40.35c7.81,10.66,20,17.88,20,17.88a43,43,0,0,0,8.71-7.79,94.09,94.09,0,0,0,8.76-13.08,25.07,25.07,0,0,1-.48,16.62c-3,8.05-9.65,17.23-13.59,23.17a31.6,31.6,0,0,0-3.4,6.31s-22.67-4.22-33.14-22.24c-11.34-19.53-10.53-53-10.53-53Z" transform="translate(-80.53 -136.93)" style="fill-rule:evenodd;fill:url(#Silber-5)"/><path d="M92.35,244.1s10.27,23.4,22.7,40.35c7.81,10.66,20,17.88,20,17.88a43,43,0,0,0,8.71-7.79,94.09,94.09,0,0,0,8.76-13.08,25.07,25.07,0,0,1-.48,16.62c-3,8.05-9.65,17.23-13.59,23.17a31.6,31.6,0,0,0-3.4,6.31s-22.67-4.22-33.14-22.24c-11.34-19.53-10.53-53-10.53-53l1-8.25m-.81-5.43-.62,5.26-1,8.25v.13c0,1.38-.69,34.08,10.73,53.73,10.67,18.38,33.17,22.76,34.12,22.94l1.21.23.41-1.17a31,31,0,0,1,3.24-6c.58-.88,1.22-1.83,1.9-2.83,3.87-5.75,9.19-13.62,11.84-20.63a26.28,26.28,0,0,0,.47-17.65l-1.12-2.89-1.48,2.72a92.74,92.74,0,0,1-8.6,12.85,42.28,42.28,0,0,1-7.64,7c-2.77-1.76-12.38-8.24-18.81-17C104,267,93.77,243.75,93.66,243.52l-2.12-4.85Z" transform="translate(-80.53 -136.93)" style="fill:url(#Stahl-5)"/><path d="M129.71,289.71S114.41,278,111,258.7c-3.86-22,4.12-52,4.12-52s5,19.1,9.81,33.46a108.76,108.76,0,0,0,6.69,15.55,44.15,44.15,0,0,0,14.82-.86,42.25,42.25,0,0,0,12.84-6.42,85.76,85.76,0,0,1-9,18.11,178.16,178.16,0,0,1-16.23,20.23Z" transform="translate(-80.53 -136.93)" style="fill-rule:evenodd;fill:url(#Silber-6)"/><path d="M115.15,206.73s5,19.1,9.81,33.46a108.76,108.76,0,0,0,6.69,15.55,43.87,43.87,0,0,0,5.08.27,39.1,39.1,0,0,0,9.74-1.13,42.25,42.25,0,0,0,12.84-6.42,85.76,85.76,0,0,1-9,18.11,178.16,178.16,0,0,1-16.23,20.23l-4.37,2.91S114.41,278,111,258.7c-3.86-22,4.12-52,4.12-52m0-5.64-1.41,5.27c-.33,1.23-8,30.49-4.14,52.59,3.43,19.59,18.57,31.41,19.22,31.9l.81.63.86-.57,4.37-2.91.14-.09.11-.12a181.55,181.55,0,0,0,16.38-20.43,86.72,86.72,0,0,0,9.17-18.44l1.46-4.41-3.7,2.81a41.11,41.11,0,0,1-12.34,6.17,37.52,37.52,0,0,1-9.37,1.08c-1.84,0-3.33-.1-4.16-.18a107.93,107.93,0,0,1-6.24-14.66c-4.77-14.14-9.73-33.17-9.78-33.36l-1.38-5.28Z" transform="translate(-80.53 -136.93)" style="fill:url(#Stahl-6)"/><path d="M149.61,171.31s-.37.35-1,1c-3.41,3.62-14.56,16.33-18,31.26C126,224,132.14,248,132.14,248a48.29,48.29,0,0,0,21.94-8.45c10.32-7.62,18.82-21.64,18.82-21.64a80.9,80.9,0,0,1-11.77,2.23,148.42,148.42,0,0,1-15.4.68,80.25,80.25,0,0,1-.6-18.93c1.19-12.11,4-25.23,4-25.23Z" transform="translate(-80.53 -136.93)" style="fill-rule:evenodd;fill:url(#Silber-7)"/><path d="M149.61,171.31h0m0,0-.49,5.33s-2.8,13.12-4,25.23a80.25,80.25,0,0,0,.6,18.93h1c2.4,0,8.62-.07,14.39-.69a80.9,80.9,0,0,0,11.77-2.23s-8.5,14-18.82,21.64A48.29,48.29,0,0,1,132.14,248S126,224,130.65,203.59c3.4-14.93,14.55-27.64,18-31.26.63-.67,1-1,1-1m1.79-3.76-2.8,2.73s-.38.37-1,1.06c-3.41,3.63-14.83,16.64-18.31,31.93-4.68,20.54,1.24,44.08,1.49,45.07l.31,1.18,1.21-.11a49.22,49.22,0,0,0,22.67-8.73c10.43-7.69,18.85-21.46,19.2-22l1.89-3.11-3.51,1A81.28,81.28,0,0,1,161,218.69c-5.53.59-11.48.67-14,.68a80.13,80.13,0,0,1-.41-17.36c1.17-11.89,3.94-24.93,4-25.07l0-.08v-.09l.48-5.33.36-3.89Z" transform="translate(-80.53 -136.93)" style="fill:url(#Stahl-7)"/><path d="M181.64,153.84s-17,13.31-25.15,28.62c-7.67,14.51-6.4,31.06-6.4,31.06s10.55,2.39,23.89-5.94c9.15-5.73,27.07-24.14,27.07-24.14s-7.68,3.7-14.6,4.45a28.39,28.39,0,0,1-12.09-1.54Z" transform="translate(-80.53 -136.93)" style="fill-rule:evenodd;fill:url(#Silber-8)"/><path d="M181.64,153.84h0m0,0-7.28,32.51a29,29,0,0,0,9.55,1.67,24.7,24.7,0,0,0,2.54-.13c6.92-.75,14.6-4.45,14.6-4.45S183.13,201.85,174,207.58c-8.49,5.3-15.84,6.26-20.07,6.26a18.91,18.91,0,0,1-3.82-.32s-1.27-16.55,6.4-31.06c8.1-15.31,25.15-28.62,25.15-28.62m2.28-3.61-3.17,2.47c-.71.55-17.39,13.68-25.53,29.09-7.77,14.71-6.61,31.15-6.56,31.84l.08,1.06,1,.24a20.83,20.83,0,0,0,4.13.35c4.77,0,12.25-1.13,20.83-6.48,9.2-5.75,26.6-23.6,27.34-24.36l5.66-5.81-7.32,3.51c-.07,0-7.54,3.6-14.13,4.32a23.09,23.09,0,0,1-2.38.13,28.2,28.2,0,0,1-7.86-1.19l7-31.25.88-3.92Z" transform="translate(-80.53 -136.93)" style="fill:url(#Stahl-8)"/><path d="M249.53,138.37s-27.74-.11-44.37,9.64C190.92,156.35,184,175.25,184,175.25s13.69,2.63,26.69-3.88c17.74-8.84,37.89-31.1,37.85-31.05Z" transform="translate(-80.53 -136.93)" style="fill-rule:evenodd;fill:url(#Silber-9)"/><path d="M249.48,138.37h.05l-1,1.95s-20.07,22.16-37.85,31.05a44.66,44.66,0,0,1-19.78,4.41,40,40,0,0,1-6.91-.53s6.91-18.9,21.15-27.24c16.26-9.53,43.13-9.64,44.32-9.64m0-1.44c-1.15,0-28.46.12-45,9.84-14.52,8.5-21.48,27.2-21.77,28l-.58,1.59,1.66.32a41.87,41.87,0,0,0,7.18.55,46.34,46.34,0,0,0,20.43-4.56c17.81-8.91,37.44-30.47,38.27-31.38l.13-.14.09-.18,1-1.94,1-2.08h-2.37Z" transform="translate(-80.53 -136.93)" style="fill:url(#Stahl-9)"/><path d="M684.33,457.76S669.64,467.88,652.87,469c-9.16.63-16.45-1.54-23.82-3.21-7.12-1.62-14.47-2.74-14.6-2.25-.16.66-.7-11.06,3.79-18.49,3.3-5.47,9.23-9.69,13.52-14.64a185.58,185.58,0,0,0,12.29-15.88l-2.42,32a56.43,56.43,0,0,0,14.73,4.91c13.36,2.53,31.37,3.82,31.37,3.82Z" transform="translate(-80.53 -136.93)" style="fill-rule:evenodd;fill:url(#Silber-10)"/><path d="M644.05,414.57l-2.42,32a56.43,56.43,0,0,0,14.73,4.91c13.36,2.53,31.37,3.82,31.37,3.82l-3.4,2.43S669.64,467.88,652.87,469c-1.11.07-2.19.11-3.25.11-7.67,0-14.09-1.85-20.57-3.32a96.19,96.19,0,0,0-14-2.37c-.37,0-.58,0-.6.12a0,0,0,0,1,0,0c-.18,0-.57-11.29,3.8-18.52,3.3-5.47,9.23-9.69,13.52-14.64a185.58,185.58,0,0,0,12.29-15.88m1.85-5.31-3,4.51a187.84,187.84,0,0,1-12.18,15.73c-1.58,1.83-3.45,3.6-5.26,5.32-3.08,2.93-6.26,6-8.41,9.52-4.38,7.25-4.45,18.88-3.83,20l.41.73h2l0-.12a111,111,0,0,1,13.14,2.3l3,.7c5.52,1.31,11.22,2.66,17.87,2.66,1.11,0,2.24,0,3.34-.12,17-1.16,31.58-11.1,32.19-11.53l3.42-2.44,3.25-2.32-4-.28c-.18,0-18.08-1.31-31.2-3.8a57.72,57.72,0,0,1-13.49-4.36l2.35-31.06.41-5.42Z" transform="translate(-80.53 -136.93)" style="fill:url(#Stahl-10)"/><path d="M717.82,422.82s-8.62,12.36-22.72,15.47c-20,4.42-47.65.06-47.65.06s3.59-19,9.18-31.84a31.11,31.11,0,0,1,10.23-12.8s-.34,8.3.2,15.47a59.9,59.9,0,0,0,1.74,10.24s13.66.34,26.69.21c10.47-.11,25.24-1.18,25.24-1.18Z" transform="translate(-80.53 -136.93)" style="fill-rule:evenodd;fill:url(#Silber-11)"/><path d="M666.86,393.71h0m0,0s-.34,8.3.2,15.47a59.9,59.9,0,0,0,1.74,10.24s9.53.24,20.26.24l6.43,0c10.47-.11,25.24-1.18,25.24-1.18l-2.91,4.37s-8.62,12.36-22.72,15.47a102.7,102.7,0,0,1-21.44,2,188.86,188.86,0,0,1-26.21-1.92s3.59-19,9.18-31.84a31.11,31.11,0,0,1,10.23-12.8m1.56-2.73-2.34,1.52a32.34,32.34,0,0,0-10.77,13.44c-5.59,12.86-9.12,31.36-9.27,32.14l-.28,1.46,1.47.23a191.74,191.74,0,0,0,26.43,1.94,102.34,102.34,0,0,0,21.75-2c14.48-3.19,23.22-15.52,23.59-16l2.93-4.4,1.62-2.44-2.92.21c-.15,0-14.85,1.06-25.15,1.17l-6.42,0c-8.51,0-16.33-.15-19.13-.21a58.8,58.8,0,0,1-1.43-8.94c-.53-7-.2-15.22-.2-15.31l.12-2.78Z" transform="translate(-80.53 -136.93)" style="fill:url(#Stahl-11)"/><path d="M756.64,361.67s-13.16,26.88-36.23,39.21c-7.75,4.15-17.38,7.81-26,8.41a64.45,64.45,0,0,1-22.22-2.48s.46-18.84,4.14-33.54a75.4,75.4,0,0,1,9.94-22.76s2.6,13.1,3.75,22.28a38.71,38.71,0,0,1,.13,8.78,40.63,40.63,0,0,0,23.13-1c19.66-6.93,44.32-22.76,44.32-22.76Z" transform="translate(-80.53 -136.93)" style="fill-rule:evenodd;fill:url(#Silber-12)"/><path d="M686.28,350.51s2.6,13.1,3.75,22.28a38.71,38.71,0,0,1,.13,8.78,37.1,37.1,0,0,0,9.83,1.21,40,40,0,0,0,13.3-2.23c19.66-6.93,44.32-22.76,44.32-22.76l-1,3.88s-13.16,26.88-36.23,39.21c-7.75,4.15-17.38,7.81-26,8.41-1.36.1-2.7.14-4,.14a64.49,64.49,0,0,1-18.22-2.62s.46-18.84,4.14-33.54a75.4,75.4,0,0,1,9.94-22.76m.75-3.57-1.93,2.75a75.63,75.63,0,0,0-10.16,23.23c-3.67,14.69-4.17,33.66-4.18,33.85l0,1.07,1,.33a65.11,65.11,0,0,0,18.67,2.7c1.38,0,2.77-.05,4.11-.14,10.52-.74,21.16-5.69,26.56-8.58,23.22-12.4,36.3-38.73,36.84-39.84l.07-.14,0-.14,1-3.89.88-3.52-3.06,2c-.25.16-24.74,15.82-44,22.62A38.46,38.46,0,0,1,700,381.34a39,39,0,0,1-8.29-.87,43.06,43.06,0,0,0-.24-7.85c-1.14-9.14-3.75-22.25-3.77-22.39l-.66-3.29Z" transform="translate(-80.53 -136.93)" style="fill:url(#Stahl-12)"/><path d="M760,304.9a105.9,105.9,0,0,1-4.35,23.3c-3.07,9.6-8.69,18.86-13.67,24.16C724.5,371,699.86,369,699.86,369S692,358.12,690.3,347a84.1,84.1,0,0,1,.34-27.56l13.1,25.23a86.5,86.5,0,0,0,29.12-17.43c11.84-10.94,22.54-26.54,26.74-33,1.22-1.87,1.89-3,1.89-3Z" transform="translate(-80.53 -136.93)" style="fill-rule:evenodd;fill:url(#Silber-13)"/><path d="M761.49,291.31,760,304.9a105.9,105.9,0,0,1-4.35,23.3c-3.07,9.6-8.69,18.86-13.67,24.16C727.65,367.64,708.51,369,702.08,369c-1.42,0-2.22-.07-2.22-.07S692,358.12,690.3,347a84.1,84.1,0,0,1,.34-27.56l13.1,25.23a86.5,86.5,0,0,0,29.12-17.43c11.84-10.94,22.54-26.54,26.74-33,1.22-1.87,1.89-3,1.89-3m2.11-6.2-3.34,5.45s-.68,1.11-1.86,2.93c-4,6.21-14.73,21.82-26.52,32.72a86.72,86.72,0,0,1-27.43,16.71l-12.53-24.13-1.84-3.54-.85,3.9a85.06,85.06,0,0,0-.35,28.09c1.71,11.31,9.49,22.11,9.82,22.56l.39.53.65.06s.88.07,2.34.07c7.49,0,26.47-1.67,41-17.12,5.61-6,11.11-15.67,14-24.71A106.7,106.7,0,0,0,761.47,305l1.45-13.55.68-6.36Z" transform="translate(-80.53 -136.93)" style="fill:url(#Stahl-13)"/><path d="M752.76,253.46s.8,33.45-10.54,53c-10.46,18-33.14,22.24-33.14,22.24a31.49,31.49,0,0,0-3.39-6.31c-4-5.95-10.56-15.13-13.6-23.17a25.06,25.06,0,0,1-.48-16.62,94.09,94.09,0,0,0,8.76,13.08,42.74,42.74,0,0,0,8.71,7.78s12.19-7.22,20-17.88c12.43-16.94,22.71-40.35,22.71-40.35Z" transform="translate(-80.53 -136.93)" style="fill-rule:evenodd;fill:url(#Silber-14)"/><path d="M751.79,245.21l1,8.25s.8,33.45-10.54,53c-10.46,18-33.14,22.24-33.14,22.24a31.49,31.49,0,0,0-3.39-6.31c-4-5.95-10.56-15.13-13.6-23.17a25.06,25.06,0,0,1-.48-16.62,94.09,94.09,0,0,0,8.76,13.08,42.74,42.74,0,0,0,8.71,7.78s12.19-7.22,20-17.88c12.43-16.94,22.71-40.35,22.71-40.35m.81-5.43-2.13,4.85c-.1.23-10.36,23.46-22.55,40.08-6.43,8.78-16,15.25-18.8,17a42.54,42.54,0,0,1-7.64-7,93.58,93.58,0,0,1-8.6-12.84l-1.49-2.72-1.12,2.89a26.35,26.35,0,0,0,.47,17.65c2.66,7,8,14.88,11.85,20.62l1.9,2.83a30.82,30.82,0,0,1,3.23,6l.41,1.17,1.21-.23c1-.17,23.45-4.55,34.13-22.93,11.41-19.65,10.76-52.35,10.73-53.74v-.13l-1-8.25-.61-5.26Z" transform="translate(-80.53 -136.93)" style="fill:url(#Stahl-14)"/><path d="M710.05,287.91a177.86,177.86,0,0,1-16.22-20.22,86.11,86.11,0,0,1-9-18.11A42.51,42.51,0,0,0,697.66,256a44.45,44.45,0,0,0,14.82.86,108.59,108.59,0,0,0,6.69-15.56C724,227,729,207.84,729,207.84s8,29.93,4.12,52c-3.38,19.27-18.68,31-18.68,31Z" transform="translate(-80.53 -136.93)" style="fill-rule:evenodd;fill:url(#Silber-15)"/><path d="M729,207.84s8,29.93,4.12,52c-3.38,19.27-18.68,31-18.68,31l-4.37-2.92a177.86,177.86,0,0,1-16.22-20.22,86.11,86.11,0,0,1-9-18.11A42.51,42.51,0,0,0,697.66,256a39.58,39.58,0,0,0,9.74,1.13,43.65,43.65,0,0,0,5.08-.27,108.59,108.59,0,0,0,6.69-15.56C724,227,729,207.84,729,207.84m0-5.64-1.37,5.28c-.05.19-5,19.22-9.78,33.36a108.29,108.29,0,0,1-6.25,14.66c-.83.08-2.32.19-4.16.19a38,38,0,0,1-9.37-1.08,41,41,0,0,1-12.34-6.18l-3.69-2.8,1.45,4.4a86.66,86.66,0,0,0,9.17,18.45A182.21,182.21,0,0,0,709,288.9l.12.12.13.09,4.37,2.91.86.58.82-.63c.64-.49,15.78-12.32,19.22-31.91,3.87-22.1-3.82-51.35-4.15-52.59L729,202.2Z" transform="translate(-80.53 -136.93)" style="fill:url(#Stahl-15)"/><path d="M695,177.76s2.8,13.11,4,25.22a80.94,80.94,0,0,1-.6,18.94,151.83,151.83,0,0,1-15.41-.68A81.69,81.69,0,0,1,671.23,219s8.51,14,18.82,21.64A48.19,48.19,0,0,0,712,249.09s6.15-24,1.49-44.39c-3.4-14.93-14.55-27.64-18-31.25-.63-.67-1-1-1-1Z" transform="translate(-80.53 -136.93)" style="fill-rule:evenodd;fill:url(#Silber-16)"/><path d="M694.52,172.42s.37.36,1,1c3.41,3.61,14.56,16.32,18,31.25,4.66,20.44-1.49,44.39-1.49,44.39a48.19,48.19,0,0,1-21.94-8.45C679.74,233,671.23,219,671.23,219A81.69,81.69,0,0,0,683,221.24c5.77.62,12,.68,14.39.68h1A80.94,80.94,0,0,0,699,203c-1.2-12.11-4-25.22-4-25.22l-.49-5.34m-1.78-3.74.35,3.87.49,5.34V178l0,.09c0,.13,2.8,13.18,4,25.06a79.93,79.93,0,0,1-.42,17.36c-2.53,0-8.48-.08-14-.67a82.08,82.08,0,0,1-11.54-2.19l-3.51-1,1.89,3.11c.35.59,8.78,14.35,19.2,22.05a49.35,49.35,0,0,0,22.67,8.73l1.21.1.31-1.18c.25-1,6.18-24.53,1.49-45.07-3.48-15.29-14.89-28.3-18.31-31.92-.66-.7-1-1.07-1-1.07l-2.79-2.71Z" transform="translate(-80.53 -136.93)" style="fill:url(#Stahl-16)"/><path d="M669.77,187.46A28.37,28.37,0,0,1,657.69,189c-6.92-.75-14.61-4.45-14.61-4.45S661,203,670.16,208.69C683.49,217,694,214.64,694,214.64s1.27-16.56-6.4-31.07C679.55,168.26,662.5,155,662.5,155Z" transform="translate(-80.53 -136.93)" style="fill-rule:evenodd;fill:url(#Silber-17)"/><path d="M662.5,155s17,13.31,25.14,28.62c7.67,14.51,6.4,31.07,6.4,31.07a19.5,19.5,0,0,1-3.82.31c-4.23,0-11.58-1-20.06-6.26-9.16-5.72-27.08-24.14-27.08-24.14s7.69,3.7,14.61,4.45a22,22,0,0,0,2.54.14,28.78,28.78,0,0,0,9.54-1.68L662.5,155m-2.29-3.61.88,3.92,7,31.25a28,28,0,0,1-7.86,1.19,20.76,20.76,0,0,1-2.39-.13c-6.58-.72-14.05-4.28-14.13-4.32l-7.31-3.51,5.65,5.82c.74.75,18.15,18.6,27.34,24.35,8.58,5.36,16.06,6.48,20.83,6.48a19.93,19.93,0,0,0,4.13-.35l1-.23.08-1.06c.06-.7,1.22-17.14-6.56-31.85-8.14-15.41-24.82-28.53-25.53-29.09l-3.17-2.47Z" transform="translate(-80.53 -136.93)" style="fill:url(#Stahl-17)"/><path d="M595.58,141.43s20.07,22.17,37.85,31.06c13,6.5,26.69,3.88,26.69,3.88s-6.91-18.91-21.14-27.25c-16.63-9.74-44.37-9.63-44.37-9.63Z" transform="translate(-80.53 -136.93)" style="fill-rule:evenodd;fill:url(#Silber-18)"/><path d="M594.65,139.49c1.19,0,28.07.1,44.33,9.63,14.23,8.34,21.14,27.25,21.14,27.25a40.67,40.67,0,0,1-6.9.52,44.67,44.67,0,0,1-19.79-4.4c-17.78-8.89-37.85-31.06-37.85-31.06l-1-1.94h0m0-1.44h-2.36l1,2.07,1,1.94.09.18.13.15c.83.91,20.46,22.47,38.28,31.37a46.17,46.17,0,0,0,20.43,4.56,41.68,41.68,0,0,0,7.17-.55l1.66-.32-.58-1.59c-.29-.79-7.25-19.48-21.77-28-16.58-9.72-43.9-9.83-45.05-9.83Z" transform="translate(-80.53 -136.93)" style="fill:url(#Stahl-18)"/><path d="M300.83,208.76H280.5V204.3c0-2.09-.26-3.41-.78-4a3.39,3.39,0,0,0-2.6-.86,3.77,3.77,0,0,0-3,1.16,5.14,5.14,0,0,0-1,3.49,7.52,7.52,0,0,0,1.14,4.54q1.08,1.53,6.18,3.68,14.63,6.21,18.42,10.18t3.79,12.83q0,6.43-2.1,9.48t-8.14,5.11a43.26,43.26,0,0,1-14,2.06,41.92,41.92,0,0,1-15-2.38q-6.22-2.37-8.14-6.06t-1.93-10.44v-3.94h20.34v7.32c0,2.26.28,3.71.85,4.35a4,4,0,0,0,3.05,1,4.09,4.09,0,0,0,3.25-1.23,5.42,5.42,0,0,0,1.06-3.64c0-3.55-.67-5.86-2-6.95s-4.8-2.92-10.24-5.47a108.91,108.91,0,0,1-10.82-5.61,13.84,13.84,0,0,1-4.39-4.84,15.88,15.88,0,0,1-1.74-7.88q0-6.91,2.47-10.11t8-5a43.15,43.15,0,0,1,13.31-1.8,47.11,47.11,0,0,1,14.54,2q6,2,7.95,5t1.95,10.17Z" transform="translate(-80.53 -136.93)"/><path d="M276.39,189.28a47.11,47.11,0,0,1,14.54,2q6,2,7.95,5t1.95,10.17v2.38H280.5V204.3c0-2.09-.26-3.41-.78-4a3.39,3.39,0,0,0-2.6-.86,3.77,3.77,0,0,0-3,1.16,5.14,5.14,0,0,0-1,3.49,7.52,7.52,0,0,0,1.14,4.54q1.08,1.53,6.18,3.68,14.63,6.21,18.42,10.18t3.79,12.83q0,6.43-2.1,9.48t-8.14,5.11a43.26,43.26,0,0,1-14,2.06,41.92,41.92,0,0,1-15-2.38q-6.22-2.37-8.14-6.06t-1.93-10.44v-3.94h20.34v7.32c0,2.26.28,3.71.85,4.35a4,4,0,0,0,3.05,1,4.09,4.09,0,0,0,3.25-1.23,5.42,5.42,0,0,0,1.06-3.64c0-3.55-.67-5.86-2-6.95s-4.8-2.92-10.24-5.47a108.91,108.91,0,0,1-10.82-5.61,13.84,13.84,0,0,1-4.39-4.84,15.88,15.88,0,0,1-1.74-7.88q0-6.91,2.47-10.11t8-5a43.15,43.15,0,0,1,13.31-1.8m0-2.16a45.33,45.33,0,0,0-14,1.91c-4.08,1.33-7.12,3.26-9,5.73s-2.92,6.28-2.92,11.43a18.12,18.12,0,0,0,2,8.95,15.94,15.94,0,0,0,5.09,5.57,106.57,106.57,0,0,0,11.08,5.76l1.13.54H251.14v6.1c0,4.91.71,8.65,2.17,11.44s4.65,5.31,9.28,7.08a44.45,44.45,0,0,0,15.78,2.52A45.64,45.64,0,0,0,293.11,252c4.51-1.54,7.52-3.48,9.21-5.92s2.49-5.93,2.49-10.71c0-6.45-1.48-11.26-4.39-14.32-2.64-2.76-8.47-6.07-17.8-10.1H303v-4.54c0-5.26-.75-9-2.3-11.35s-4.56-4.35-9.09-5.83a49.3,49.3,0,0,0-15.21-2.08ZM278.34,209A7.34,7.34,0,0,1,276,207.4a5.43,5.43,0,0,1-.74-3.29,3.14,3.14,0,0,1,.48-2.07c.09-.1.37-.42,1.37-.42a2.33,2.33,0,0,1,1,.14,8,8,0,0,1,.26,2.54V209Zm-2.21,30.44a7.75,7.75,0,0,1-.34-2.93V230a21.22,21.22,0,0,1,2.7,1.66c.35.28,1.2,1.39,1.2,5.26a3.6,3.6,0,0,1-.53,2.22,2.13,2.13,0,0,1-1.62.49,2.83,2.83,0,0,1-1.41-.23Z" transform="translate(-80.53 -136.93)" style="fill:url(#Silber-19)"/><path d="M356.89,216.75H336.34V206.29c0-3-.21-4.94-.65-5.69s-1.41-1.14-2.91-1.14c-1.69,0-2.76.46-3.22,1.38s-.68,2.9-.68,5.95v28q0,4.39.68,5.73c.46.89,1.48,1.34,3.08,1.34s2.53-.45,3-1.34.7-3,.7-6.3V226.6h20.55V229q0,9.35-1.74,13.25t-7.66,6.85Q341.57,252,332.88,252q-9,0-14.88-2.49t-7.76-6.89q-1.9-4.41-1.9-13.26V211.77a58.59,58.59,0,0,1,.59-9.76,12.23,12.23,0,0,1,3.48-6.26,19.62,19.62,0,0,1,8-4.74,37,37,0,0,1,11.84-1.73q9.07,0,15,2.67t7.76,6.67q1.86,4,1.86,12.41Z" transform="translate(-80.53 -136.93)"/><path d="M332.3,189.28q9.07,0,15,2.67t7.76,6.67q1.86,4,1.86,12.41v5.72H336.34V206.29c0-3-.21-4.94-.65-5.69s-1.41-1.14-2.91-1.14c-1.69,0-2.76.46-3.22,1.38s-.68,2.9-.68,5.95v28q0,4.39.68,5.73c.46.89,1.48,1.34,3.08,1.34s2.53-.45,3-1.34.7-3,.7-6.3V226.6h20.55V229q0,9.35-1.74,13.25t-7.66,6.85Q341.57,252,332.88,252q-9,0-14.88-2.49t-7.76-6.89q-1.9-4.41-1.9-13.26V211.77a58.59,58.59,0,0,1,.59-9.76,12.23,12.23,0,0,1,3.48-6.26,19.62,19.62,0,0,1,8-4.74,37,37,0,0,1,11.84-1.73m0-2.16A39.46,39.46,0,0,0,319.78,189a21.86,21.86,0,0,0-8.92,5.29,14.38,14.38,0,0,0-4.06,7.38,60.75,60.75,0,0,0-.62,10.14v17.58c0,6.26.68,10.87,2.08,14.11,1.49,3.45,4.48,6.15,8.9,8,4.15,1.77,9.44,2.66,15.72,2.66A34.93,34.93,0,0,0,348.45,251c4.4-2.18,7.32-4.84,8.68-7.91S359,235.54,359,229v-4.51H334.19v9.73c0,4.25-.42,5.2-.46,5.29a2,2,0,0,1-1.09.19,2.16,2.16,0,0,1-1.18-.2s-.42-.95-.42-4.71v-28c0-3.9.4-4.87.45-5h0a3,3,0,0,1,1.28-.19,3,3,0,0,1,1.07.14,17.92,17.92,0,0,1,.34,4.53v12.62H359V211c0-6-.67-10.35-2.05-13.32-1.46-3.13-4.43-5.73-8.83-7.72-4.19-1.91-9.53-2.87-15.86-2.87Z" transform="translate(-80.53 -136.93)" style="fill:url(#Silber-20)"/><polygon points="321.42 53.64 321.42 75.48 301.57 75.48 301.57 53.64 285.94 53.64 285.94 114.51 301.57 114.51 301.57 90.51 321.42 90.51 321.42 114.51 337.06 114.51 337.06 53.64 321.42 53.64"/><path d="M417.59,190.57v60.87H402v-24H382.1v24H366.47V190.57H382.1v21.84H402V190.57h15.64m2.15-2.16H399.79v21.84H384.26V188.41H364.31V253.6h19.95v-24h15.53v24h19.95V188.41Z" transform="translate(-80.53 -136.93)" style="fill:url(#Silber-21)"/><polygon points="364.43 99.17 364.43 53.13 347.78 53.13 347.78 114.54 390.79 114.54 390.79 99.17 364.43 99.17"/><path d="M445,190.06v46h26.36v15.37h-43V190.06H445m2.16-2.16h-21v65.73h47.33V233.94H447.12v-46Z" transform="translate(-80.53 -136.93)" style="fill:url(#Silber-22)"/><path d="M519.15,190.82H493.82l-16.56,60.65H494.5l1.9-11.34h20.67l2.37,11.34h16.75Zm-5.77,36.75H501.49l5.95-21.7Z" transform="translate(-80.53 -136.93)"/><path d="M519.15,190.82l17,60.65H519.44l-2.37-11.34H496.4l-1.9,11.34H477.26l16.56-60.65h25.33m-17.66,36.75h11.89l-5.94-21.7-5.95,21.7m19.3-38.91H492.17l-.44,1.6L475.18,250.9l-.74,2.73h21.88l.31-1.8,1.6-9.54h17.08l2,9.62.36,1.72H539l-.77-2.74-17-60.65-.44-1.58Zm-16.47,36.75L507.44,214l3.11,11.37Z" transform="translate(-80.53 -136.93)" style="fill:url(#Silber-23)"/><path d="M593.57,212.82H570.52v-5.46q0-5.16-.66-6.45c-.44-.87-1.48-1.3-3.12-1.3a3.32,3.32,0,0,0-2.91,1.11q-.76,1.11-.76,5.72v28.83c0,2.69.25,4.47.76,5.32s1.54,1.28,3.07,1.28q2.52,0,3.42-1.44t.91-5.64v-7.13h-4.66v-9.13h27v32.25H579.08l-2.13-4.3a14.54,14.54,0,0,1-6,4.17,23.29,23.29,0,0,1-8.46,1.39,30.66,30.66,0,0,1-10.88-1.91,19.93,19.93,0,0,1-7.7-4.73,12.56,12.56,0,0,1-3.29-5.92,48.24,48.24,0,0,1-.66-9.29V212.34q0-8.61,1.37-12.51c.91-2.6,3.54-5,7.86-7.14s9.92-3.25,16.79-3.25,12.35.94,16.81,2.82,7.35,4.11,8.7,6.7,2,6.34,2,11.26Z" transform="translate(-80.53 -136.93)"/><path d="M566,189.44q10.13,0,16.81,2.82t8.7,6.7q2,3.87,2,11.26v2.6H570.52v-5.46q0-5.16-.66-6.45c-.44-.87-1.48-1.3-3.12-1.3a3.32,3.32,0,0,0-2.91,1.11q-.76,1.11-.76,5.72v28.83c0,2.69.25,4.47.76,5.32s1.54,1.28,3.07,1.28q2.52,0,3.42-1.44t.91-5.64v-7.13h-4.66v-9.13h27v32.25H579.08l-2.13-4.3a14.54,14.54,0,0,1-6,4.17,23.29,23.29,0,0,1-8.46,1.39,30.66,30.66,0,0,1-10.88-1.91,19.93,19.93,0,0,1-7.7-4.73,12.56,12.56,0,0,1-3.29-5.92,48.24,48.24,0,0,1-.66-9.29V212.34q0-8.61,1.37-12.51c.91-2.6,3.54-5,7.86-7.14s9.92-3.25,16.79-3.25m0-2.16c-7.17,0-13.15,1.17-17.75,3.48-4.9,2.45-7.82,5.18-8.93,8.35-1,2.86-1.5,7.19-1.5,13.23v17.85a49.35,49.35,0,0,0,.71,9.74,14.68,14.68,0,0,0,3.82,6.94,22.24,22.24,0,0,0,8.52,5.28,32.87,32.87,0,0,0,11.64,2,25.59,25.59,0,0,0,9.24-1.54,17,17,0,0,0,4.55-2.58l.82,1.66.59,1.2h18V216.37h-30.5v-9.93c0-3.27.3-4.27.39-4.49a2.28,2.28,0,0,1,1.12-.18,3.08,3.08,0,0,1,1.22.17c.09.27.4,1.46.4,5.42V215h27.37v-4.76c0-5.32-.74-9.34-2.27-12.26-1.61-3.07-4.81-5.59-9.79-7.69-4.7-2-10.63-3-17.64-3Zm-.8,42.54h3.84v5c0,3.4-.48,4.34-.58,4.49s-.76.43-1.59.43-1.19-.19-1.21-.22-.46-.82-.46-4.22v-5.45Z" transform="translate(-80.53 -136.93)" style="fill:url(#Silber-24)"/><path d="M325.06,294.83V411H302.24l0-78.44L293.12,411H276.94l-9.58-76.65,0,76.65H244.5V294.83h33.78q1.52,10.49,3.1,24.7l3.71,29.56,6-54.26Z" transform="translate(-80.53 -136.93)" style="stroke-miterlimit:10;stroke-width:2.5px;stroke:url(#linear-gradient-2)"/><path d="M384.1,294.83,399,411H372.34l-1.4-20.88H361.6L360,411H333l13.32-116.19Zm-13.84,74.71q-2-19.74-4-48.8-4,33.38-5,48.8Z" transform="translate(-80.53 -136.93)" style="stroke-miterlimit:10;stroke-width:2.5px;stroke:url(#linear-gradient-3)"/><path d="M406.89,294.83h18.48q18.48,0,25,1.65t10.66,8.44q4.13,6.78,4.13,21.63,0,13.56-2.92,18.23t-11.47,5.6q7.75,2.22,10.42,5.95a18.87,18.87,0,0,1,3.32,6.86q.64,3.12.65,17.19V411H440.93V372.41q0-9.33-1.27-11.55T433,358.63V411H406.89ZM433,314.71v25.84q4.39,0,6.17-1.4c1.17-.94,1.76-4,1.76-9.08v-6.39q0-5.52-1.7-7.25C438.09,315.29,436,314.71,433,314.71Z" transform="translate(-80.53 -136.93)" style="stroke-miterlimit:10;stroke-width:2.5px;stroke:url(#linear-gradient-4)"/><path d="M539.67,345.43h-26.1v-20.2q0-8.81-.84-11c-.56-1.45-1.79-2.18-3.69-2.18-2.15,0-3.52.88-4.09,2.65s-.87,5.6-.87,11.48v54q0,8.47.87,11a4.18,4.18,0,0,0,7.72,0c.59-1.73.9-5.78.9-12.16V364.44h26.1V369q0,18-2.2,25.59t-9.73,13.22q-7.54,5.69-18.58,5.68-11.48,0-18.91-4.81a22.75,22.75,0,0,1-9.86-13.31q-2.42-8.5-2.42-25.59V335.81a176.45,176.45,0,0,1,.74-18.84,28.8,28.8,0,0,1,4.44-12.09,25.54,25.54,0,0,1,10.23-9.15,32.69,32.69,0,0,1,15-3.34q11.54,0,19,5.16a24.05,24.05,0,0,1,9.86,12.87q2.35,7.69,2.35,24Z" transform="translate(-80.53 -136.93)" style="stroke-miterlimit:10;stroke-width:2.5px;stroke:url(#linear-gradient-5)"/><path d="M612.12,362.87q0,17.5-.71,24.79A30.52,30.52,0,0,1,606.94,401a25,25,0,0,1-10.14,9.26,32.58,32.58,0,0,1-14.88,3.23,33.39,33.39,0,0,1-14.48-3,24.57,24.57,0,0,1-10.32-9.15A29.9,29.9,0,0,1,552.47,388q-.75-7.17-.75-25.11V343q0-17.52.71-24.8a30.56,30.56,0,0,1,4.47-13.31A25,25,0,0,1,567,295.62a32.61,32.61,0,0,1,14.88-3.23,33.39,33.39,0,0,1,14.48,3.05,24.72,24.72,0,0,1,10.33,9.15,30.19,30.19,0,0,1,4.65,13.28q.74,7.17.74,25.12ZM586,324.69c0-5.41-.25-8.87-.77-10.37a3.08,3.08,0,0,0-3.19-2.26,3.46,3.46,0,0,0-3.14,1.83q-1.08,1.83-1.08,10.8v54.25q0,10.11.71,12.49a3.12,3.12,0,0,0,3.32,2.36,3.27,3.27,0,0,0,3.41-2.72q.75-2.73.74-13Z" transform="translate(-80.53 -136.93)" style="stroke-miterlimit:10;stroke-width:2.5px;stroke:url(#linear-gradient-6)"/><path d="M388.22,260.5h12.24a15.46,15.46,0,0,1,5.85.92,9.53,9.53,0,0,1,3.68,2.64,10.61,10.61,0,0,1,2.11,4,17.38,17.38,0,0,1,.66,4.85,15.87,15.87,0,0,1-1,6.22,10.19,10.19,0,0,1-2.7,3.7,8.93,8.93,0,0,1-3.71,2,20.08,20.08,0,0,1-4.91.69H388.22Zm8.24,5.66v13.68h2a9,9,0,0,0,3.67-.54,3.69,3.69,0,0,0,1.71-1.88,11.13,11.13,0,0,0,.62-4.34q0-4-1.38-5.45t-4.59-1.47Z" transform="translate(-80.53 -136.93)"/><path d="M400.46,260.5a15.46,15.46,0,0,1,5.85.92,9.53,9.53,0,0,1,3.68,2.64,10.61,10.61,0,0,1,2.11,4,17.38,17.38,0,0,1,.66,4.85,15.87,15.87,0,0,1-1,6.22,10.19,10.19,0,0,1-2.7,3.7,8.93,8.93,0,0,1-3.71,2,20.08,20.08,0,0,1-4.91.69H388.22v-25h12.24m-4,19.34h2a9,9,0,0,0,3.67-.54,3.69,3.69,0,0,0,1.71-1.88,11.13,11.13,0,0,0,.62-4.34q0-4-1.38-5.45t-4.59-1.47h-2.05v13.68m4-20.78H386.78V287h13.68a21.87,21.87,0,0,0,5.26-.73,10.44,10.44,0,0,0,4.3-2.3,11.64,11.64,0,0,0,3.08-4.21,17,17,0,0,0,1.1-6.8,19.13,19.13,0,0,0-.71-5.25,12.16,12.16,0,0,0-2.4-4.54,10.89,10.89,0,0,0-4.23-3.05,16.91,16.91,0,0,0-6.4-1Zm-2.56,8.54h.61c1.72,0,2.9.35,3.54,1,.37.39,1,1.49,1,4.46a9.36,9.36,0,0,1-.49,3.74,2.33,2.33,0,0,1-1,1.19,7.45,7.45,0,0,1-3,.39h-.58V267.6Z" transform="translate(-80.53 -136.93)" style="fill:url(#Silber-25)"/><path d="M417.07,260.5h22.08v5.34H425.33v4h12.82v5.1H425.33v4.94h14.22v5.67H417.07Z" transform="translate(-80.53 -136.93)"/><path d="M439.15,260.5v5.34H425.33v4h12.82v5.1H425.33v4.94h14.22v5.67H417.07v-25h22.08m1.44-1.44h-25V287H441v-8.55H426.77v-2.06h12.82v-8H426.77v-1.1h13.82v-8.22Z" transform="translate(-80.53 -136.93)" style="fill:url(#Silber-26)"/><path d="M444.05,260.5h7.69l10.05,13.84V260.5h7.76v25h-7.76l-10-13.75v13.75h-7.75Z" transform="translate(-80.53 -136.93)"/><path d="M469.55,260.5v25h-7.76l-10-13.75v13.75h-7.75v-25h7.69l10.05,13.84V260.5h7.76m1.44-1.44H460.35v10.85l-7.44-10.26-.43-.59h-9.87V287h10.63V276.21l7.38,10.16.43.6H471V259.06Z" transform="translate(-80.53 -136.93)" style="fill:url(#Silber-27)"/></svg>